<?xml version="1.0" standalone="no"?>
<!DOCTYPE svg PUBLIC "-//W3C//DTD SVG 20010904//EN"
 "http://www.w3.org/TR/2001/REC-SVG-20010904/DTD/svg10.dtd">
<svg version="1.0" xmlns="http://www.w3.org/2000/svg"
 width="1600.000000pt" height="1600.000000pt" viewBox="0 0 1600.000000 1600.000000"
 preserveAspectRatio="xMidYMid meet">
<metadata>
Created by potrace 1.11, written by Peter Selinger 2001-2013
</metadata>
<g transform="translate(0.000000,1600.000000) scale(0.100000,-0.100000)"
fill="#000000" stroke="none">
<path d="M2353 15260 l-291 -5 -44 -30 c-23 -17 -54 -51 -68 -75 l-25 -45 0
-7095 0 -7095 31 -50 c17 -27 50 -63 73 -80 l43 -30 311 -5 c172 -3 2875 -3
6007 0 l5695 5 50 31 c28 17 64 50 80 73 l30 43 0 7108 0 7108 -30 44 c-17 23
-51 54 -75 68 l-45 25 -650 2 c-1349 6 -10813 8 -11092 3z m7125 -1215 c55
-17 99 -48 134 -98 l23 -32 5 -1350 5 -1350 1358 -2 1358 -2 40 -23 c78 -43
73 -4 77 -743 3 -446 0 -671 -7 -695 -6 -20 -27 -51 -46 -70 l-36 -35 -1375
-3 -1374 -3 0 -3779 c0 -3408 -1 -3784 -15 -3818 -19 -44 -58 -87 -100 -110
-27 -15 -109 -17 -813 -20 l-783 -4 -55 27 c-30 15 -67 43 -82 62 l-27 36 -6
371 c-4 204 -7 1916 -8 3804 l-1 3432 -1516 0 -1517 0 -41 24 c-50 29 -63 52
-70 126 -3 30 -6 335 -6 677 -1 601 0 623 19 661 11 21 32 48 48 58 27 18 73
19 1556 22 l1527 2 0 1326 c0 965 3 1337 11 1365 14 47 60 104 102 127 29 16
96 17 772 22 407 3 752 7 766 8 14 1 48 -5 77 -13z"/>
<path d="M8245 3910 c39 -4 273 -10 520 -13 354 -4 390 -3 170 3 -440 13 -767
17 -690 10z"/>
<path d="M8182 3881 c-12 -10 -22 -23 -22 -29 0 -5 -6 -12 -13 -15 -19 -7 -35
-148 -47 -417 -5 -129 -15 -341 -21 -470 -6 -129 -10 -253 -9 -275 1 -22 -1
-112 -5 -200 -8 -173 -4 -195 45 -240 22 -19 36 -20 579 -20 512 0 559 1 588
18 48 26 56 50 56 162 0 143 -30 932 -38 980 -4 22 -8 87 -9 145 -2 58 -6 132
-10 165 -4 33 -7 68 -7 78 0 9 -4 17 -9 17 -5 0 -12 10 -15 21 -5 15 -9 18
-15 9 -6 -10 -9 -10 -15 0 -5 8 -1 16 9 22 15 8 14 11 -8 29 -28 22 -46 24
-46 6 0 -11 -47 -13 -257 -10 -684 9 -675 8 -685 26 -12 22 -20 21 -46 -2z"/>
</g>
</svg>
